<svg width="160" height="160" viewBox="0 0 160 160" fill="none" xmlns="http://www.w3.org/2000/svg">
<path d="M21.4502 63.2527C19.9002 62.7127 19.8902 61.4327 20.1702 59.5727C20.3602 58.3427 20.4202 57.7727 19.7602 57.5727C19.1002 57.3727 18.6602 57.5127 18.2702 58.6227C17.8202 59.9027 18.0802 60.4127 19.0302 60.8227L18.6402 61.9327C17.3702 61.4127 16.6402 60.2427 17.3602 58.2627C17.8002 56.9927 18.7302 55.9927 20.3802 56.6027L23.6202 57.7427C24.1502 57.9227 24.4402 57.9427 24.5302 57.6727C24.5358 57.6195 24.5358 57.5659 24.5302 57.5127L25.2702 57.7727C25.2532 57.957 25.2128 58.1385 25.1502 58.3127C24.9502 58.8927 24.6002 59.1727 23.7402 58.9427C24.0456 59.3205 24.2408 59.7753 24.3043 60.257C24.3678 60.7387 24.2972 61.2286 24.1002 61.6727C24.0445 61.9585 23.9292 62.2294 23.7618 62.4676C23.5943 62.7058 23.3785 62.906 23.1284 63.0551C22.8783 63.2042 22.5995 63.2989 22.3104 63.3329C22.0212 63.367 21.7281 63.3396 21.4502 63.2527ZM22.1702 58.3927L21.1002 57.9927C21.2324 58.5753 21.2324 59.1801 21.1002 59.7627C20.9102 61.1727 21.0202 61.8327 21.8002 62.1027C22.5802 62.3727 22.9702 62.1027 23.2702 61.2527C23.7002 59.9927 23.4702 58.8427 22.1702 58.3927Z" fill="#F2F2F2"/>
<path d="M25.6 54.9929L26.42 55.4129L25.91 56.4129L17 51.8529L17.51 50.8529L20.85 52.5629C20.6594 52.1735 20.5653 51.7439 20.5757 51.3105C20.5862 50.8771 20.7008 50.4526 20.91 50.0729C21.73 48.4729 23.64 47.8529 25.73 48.9229C27.82 49.9929 28.44 51.9229 27.62 53.5029C27.4421 53.9017 27.1648 54.2482 26.8146 54.5091C26.4644 54.77 26.0531 54.9365 25.62 54.9929H25.6ZM23.24 53.7929C24.74 54.5529 26.1 54.3229 26.71 53.1429C27.32 51.9629 26.46 50.5829 25.21 49.9929C23.96 49.4029 22.42 49.3329 21.75 50.6429C21.08 51.9529 21.75 52.9929 23.24 53.7929Z" fill="#F2F2F2"/>
<path d="M26.6093 47.4523C24.7893 46.1823 24.2693 44.2123 25.5193 42.4523C26.7693 40.6923 28.7893 40.4523 30.6093 41.7623C32.4293 43.0723 32.9593 45.0023 31.7093 46.7623C30.4593 48.5223 28.4293 48.7323 26.6093 47.4523ZM29.9393 42.6923C28.6893 41.8223 27.2393 41.6923 26.3193 42.9823C25.3993 44.2723 26.0293 45.6223 27.3193 46.4923C28.6093 47.3623 30.0293 47.4923 30.9493 46.1923C31.8693 44.8923 31.1893 43.5723 29.9393 42.6923Z" fill="#F2F2F2"/>
<path d="M35.7205 40.1622C35.9182 39.9822 36.0762 39.763 36.1843 39.5185C36.2924 39.2739 36.3482 39.0095 36.3482 38.7422C36.3482 38.4748 36.2924 38.2104 36.1843 37.9659C36.0762 37.7214 35.9182 37.5021 35.7205 37.3222L32.4405 34.3222L33.2005 33.4922L38.4505 38.3322L37.6905 39.1622L37.0605 38.5822C37.1212 39.0192 37.0797 39.4643 36.9391 39.8825C36.7986 40.3007 36.5628 40.6806 36.2505 40.9922C36.0576 41.2471 35.8112 41.4567 35.5287 41.6063C35.2462 41.7558 34.9344 41.8417 34.6151 41.8579C34.2958 41.8741 33.9769 41.8202 33.6807 41.7C33.3845 41.5798 33.1182 41.3963 32.9005 41.1622L29.2305 37.7822L30.0005 36.9922L33.4605 40.1822C33.5989 40.3484 33.7725 40.4817 33.9687 40.5726C34.165 40.6635 34.379 40.7096 34.5952 40.7077C34.8115 40.7058 35.0246 40.6559 35.2192 40.5615C35.4138 40.4672 35.585 40.3308 35.7205 40.1622Z" fill="#F2F2F2"/>
<path d="M35.6804 31.2624L34.1104 29.4724L34.9504 28.7324L36.5204 30.5224L37.5704 29.5924L38.2203 30.3324L37.1604 31.2524L40.0004 34.4824C40.5004 35.0524 40.7603 35.0824 41.2403 34.6624C41.3844 34.5299 41.5213 34.3897 41.6503 34.2424L42.2803 34.9624C42.1253 35.156 41.9548 35.3367 41.7704 35.5024C40.9804 36.1924 40.1903 36.4024 39.1203 35.1824L36.3204 31.9924L35.5303 32.6824L34.8904 31.9924L35.6804 31.2624Z" fill="#F2F2F2"/>
<path d="M42.9395 25.3821L43.9395 24.8221L44.3595 25.5621C44.3956 25.158 44.5302 24.7688 44.7516 24.4289C44.973 24.0889 45.2745 23.8084 45.6295 23.6121C45.9665 23.3728 46.3748 23.2554 46.7873 23.279C47.1999 23.3026 47.5921 23.4659 47.8995 23.7421C47.9326 23.2881 48.0766 22.8491 48.319 22.4638C48.5613 22.0784 48.8946 21.7585 49.2895 21.5321C50.5495 20.8121 51.5795 21.2021 52.2895 22.5321L54.7695 26.8621L53.7695 27.4121L51.5095 23.2721C51.0495 22.4721 50.5095 21.9321 49.5595 22.4921C49.3403 22.608 49.148 22.7689 48.9953 22.9643C48.8425 23.1597 48.7328 23.3852 48.6734 23.626C48.6139 23.8667 48.6059 24.1174 48.6501 24.3614C48.6942 24.6054 48.7895 24.8374 48.9295 25.0421L51.1395 28.9021L50.1395 29.4621L47.8295 25.3821C47.3695 24.5821 46.8295 24.0421 45.8795 24.5921C45.66 24.709 45.4675 24.8709 45.3147 25.0672C45.162 25.2635 45.0523 25.4898 44.9928 25.7314C44.9334 25.9729 44.9255 26.2243 44.9697 26.4691C45.014 26.7139 45.1093 26.9466 45.2495 27.1521L47.4595 30.9921L46.4595 31.5521L42.9395 25.3821Z" fill="#F2F2F2"/>
<path d="M54.8205 22.9924C54.0205 20.8524 54.8205 18.9924 56.7505 18.2524C57.1713 18.0739 57.6257 17.9883 58.0827 18.0013C58.5396 18.0143 58.9884 18.1257 59.3984 18.3278C59.8084 18.53 60.17 18.8182 60.4586 19.1727C60.7471 19.5273 60.9558 19.9399 61.0705 20.3824C61.1393 20.556 61.1994 20.7328 61.2505 20.9124L56.0005 22.8624C56.09 23.1649 56.2398 23.4461 56.4408 23.6891C56.6418 23.9322 56.8899 24.1322 57.1701 24.2769C57.4503 24.4217 57.7569 24.5083 58.0714 24.5316C58.386 24.5549 58.702 24.5144 59.0005 24.4124C59.4379 24.2813 59.8174 24.0045 60.0757 23.6279C60.334 23.2514 60.4557 22.7977 60.4205 22.3424L61.5505 21.9924C61.6493 22.7204 61.4864 23.4598 61.0908 24.0789C60.6952 24.6979 60.0926 25.1563 59.3905 25.3724C57.2805 26.1124 55.5705 24.9924 54.8205 22.9924ZM55.6805 21.9924L59.8105 20.4524C59.7236 20.1741 59.5792 19.9172 59.3867 19.6983C59.1941 19.4793 58.9577 19.3034 58.6927 19.1817C58.4278 19.0601 58.1402 18.9955 57.8487 18.9922C57.5571 18.9889 57.2682 19.0469 57.0005 19.1624C56.7273 19.2607 56.4764 19.412 56.262 19.6077C56.0476 19.8034 55.874 20.0396 55.7513 20.3026C55.6286 20.5657 55.5592 20.8504 55.547 21.1404C55.5349 21.4305 55.5802 21.72 55.6805 21.9924Z" fill="#F2F2F2"/>
<path d="M138.37 97.6022C139.91 98.1422 139.92 99.4222 139.64 101.282C139.45 102.512 139.4 103.082 140.06 103.282C140.72 103.482 141.15 103.342 141.54 102.282C141.99 101.002 141.74 100.492 140.78 100.082L141.17 98.9722C142.44 99.5022 143.17 100.662 142.45 102.642C142.01 103.902 141.08 104.852 139.45 104.272L136.21 103.132C135.68 102.952 135.39 102.942 135.3 103.202C135.295 103.255 135.295 103.309 135.3 103.362L134.56 103.102C134.578 102.919 134.615 102.738 134.67 102.562C134.88 101.982 135.23 101.712 136.08 101.932C135.779 101.552 135.586 101.098 135.523 100.617C135.459 100.136 135.527 99.6472 135.72 99.2022C135.775 98.9154 135.889 98.6432 136.056 98.4036C136.223 98.1639 136.438 97.962 136.688 97.8111C136.938 97.6602 137.217 97.5636 137.507 97.5276C137.797 97.4916 138.091 97.517 138.37 97.6022ZM137.64 102.462L138.71 102.842C138.583 102.259 138.583 101.655 138.71 101.072C138.89 99.6622 138.78 99.0022 138 98.7322C137.22 98.4622 136.84 98.7322 136.53 99.5822C136.11 100.852 136.34 101.992 137.64 102.462Z" fill="#F2F2F2"/>
<path d="M134.21 105.862L133.39 105.442L133.9 104.442L142.81 108.992L142.3 109.992L139 108.292C139.191 108.682 139.285 109.111 139.274 109.545C139.264 109.978 139.149 110.403 138.94 110.782C138.12 112.382 136.21 113.002 134.12 111.932C132.03 110.862 131.42 108.932 132.23 107.352C132.409 106.954 132.686 106.608 133.036 106.347C133.386 106.087 133.797 105.92 134.23 105.862H134.21ZM136.57 107.062C135.07 106.302 133.71 106.532 133.11 107.712C132.51 108.892 133.36 110.272 134.6 110.902C135.84 111.532 137.4 111.562 138.07 110.252C138.74 108.942 138.06 107.832 136.57 107.062Z" fill="#F2F2F2"/>
<path d="M133.2 113.402C135.03 114.672 135.55 116.642 134.3 118.402C133.05 120.162 131.02 120.402 129.2 119.092C127.38 117.782 126.85 115.852 128.1 114.092C129.35 112.332 131.38 112.122 133.2 113.402ZM129.87 118.162C131.12 119.032 132.58 119.162 133.49 117.872C134.4 116.582 133.78 115.232 132.49 114.362C131.2 113.492 129.79 113.362 128.86 114.662C127.93 115.962 128.62 117.282 129.87 118.162Z" fill="#F2F2F2"/>
<path d="M124.09 120.692C123.892 120.872 123.734 121.092 123.626 121.336C123.518 121.581 123.462 121.845 123.462 122.112C123.462 122.38 123.518 122.644 123.626 122.889C123.734 123.133 123.892 123.352 124.09 123.532L127.36 126.532L126.6 127.362L121.35 122.522L122.11 121.692L122.74 122.272C122.672 121.83 122.712 121.377 122.854 120.953C122.997 120.529 123.239 120.144 123.56 119.832C123.753 119.577 123.999 119.368 124.282 119.218C124.564 119.069 124.876 118.983 125.195 118.967C125.515 118.95 125.834 119.004 126.13 119.125C126.426 119.245 126.692 119.428 126.91 119.662L130.58 123.042L129.82 123.872L126.36 120.682C126.222 120.514 126.049 120.378 125.852 120.285C125.655 120.192 125.44 120.145 125.223 120.146C125.005 120.147 124.79 120.196 124.595 120.291C124.399 120.385 124.226 120.523 124.09 120.692Z" fill="#F2F2F2"/>
<path d="M124.14 129.593L125.71 131.383L124.86 132.123L123.3 130.333L122.24 131.263L121.6 130.523L122.65 129.603L119.82 126.373C119.32 125.803 119.05 125.773 118.58 126.193C118.43 126.323 118.29 126.463 118.16 126.613L117.54 125.893C117.692 125.697 117.863 125.516 118.05 125.353C118.84 124.663 119.62 124.453 120.69 125.673L123.49 128.863L124.28 128.173L124.93 128.903L124.14 129.593Z" fill="#F2F2F2"/>
<path d="M116.88 135.482L115.88 136.032L115.46 135.292C115.434 135.706 115.304 136.106 115.082 136.455C114.86 136.805 114.553 137.093 114.19 137.292C113.855 137.532 113.448 137.651 113.037 137.627C112.626 137.603 112.235 137.439 111.93 137.162C111.897 137.616 111.753 138.055 111.511 138.441C111.268 138.826 110.935 139.146 110.54 139.372C109.29 140.092 108.26 139.702 107.54 138.372L105 134.052L106 133.502L108.33 137.582C108.79 138.382 109.33 138.922 110.33 138.362C110.551 138.248 110.746 138.089 110.9 137.894C111.055 137.699 111.166 137.473 111.227 137.232C111.287 136.991 111.296 136.739 111.252 136.494C111.207 136.25 111.111 136.017 110.97 135.812L108.67 131.992L109.67 131.432L112 135.472C112.46 136.272 113 136.812 114 136.262C114.22 136.145 114.412 135.983 114.565 135.787C114.718 135.591 114.827 135.364 114.887 135.123C114.946 134.881 114.954 134.63 114.91 134.385C114.866 134.14 114.77 133.908 114.63 133.702L112.41 129.842L113.41 129.282L116.88 135.482Z" fill="#F2F2F2"/>
<path d="M105 137.872C105.8 140.012 105 141.872 103.06 142.612C102.639 142.791 102.185 142.876 101.728 142.863C101.271 142.85 100.822 142.739 100.412 142.537C100.002 142.335 99.6401 142.046 99.3515 141.692C99.063 141.337 98.8543 140.925 98.7396 140.482C98.6696 140.282 98.5896 140.062 98.5596 139.952L103.79 137.952C103.702 137.649 103.553 137.367 103.352 137.123C103.151 136.879 102.903 136.679 102.623 136.534C102.342 136.389 102.035 136.302 101.72 136.28C101.405 136.257 101.089 136.299 100.79 136.402C100.351 136.531 99.9686 136.807 99.7084 137.184C99.4481 137.561 99.325 138.016 99.3596 138.472L98.2996 138.872C98.2028 138.145 98.3666 137.406 98.7619 136.787C99.1572 136.169 99.7586 135.71 100.46 135.492C102.53 134.742 104.24 135.842 105 137.872ZM104.13 138.872L99.9995 140.452C100.093 140.722 100.24 140.97 100.433 141.181C100.625 141.392 100.86 141.561 101.12 141.677C101.381 141.793 101.663 141.855 101.949 141.857C102.234 141.86 102.517 141.804 102.78 141.692C103.327 141.502 103.776 141.102 104.029 140.581C104.282 140.06 104.318 139.46 104.13 138.912V138.872Z" fill="#F2F2F2"/>
<path d="M69.0605 17.9571C78.8515 16.2307 88.9121 16.846 98.4197 19.7528C107.927 22.6596 116.612 27.7753 123.763 34.6816C130.915 41.5879 136.331 50.0888 139.568 59.4892C142.804 68.8896 143.771 78.9226 142.387 88.7679" stroke="#F2F2F2"/>
<path d="M90.9398 142.043C81.1488 143.769 71.0882 143.154 61.5806 140.247C52.0729 137.34 43.3882 132.225 36.2365 125.318C29.0848 118.412 23.6691 109.911 20.4323 100.511C17.1955 91.1102 16.2294 81.0772 17.6131 71.2319" stroke="#F2F2F2"/>
</svg>
